<mxfile host="app.diagrams.net" agent="Mozilla/5.0 (Windows NT 10.0; Win64; x64) AppleWebKit/537.36 (KHTML, like Gecko) Chrome/130.0.0.0 Safari/537.36 Edg/130.0.0.0" version="24.7.17">
  <diagram name="第 1 页" id="Mr7KiAJ10aWUcCituVRa">
    <mxGraphModel dx="557" dy="760" grid="1" gridSize="10" guides="1" tooltips="1" connect="1" arrows="1" fold="1" page="1" pageScale="1" pageWidth="827" pageHeight="1169" math="0" shadow="0">
      <root>
        <mxCell id="0" />
        <mxCell id="1" parent="0" />
        <mxCell id="UwQH9vy1tKMPyPWjgtnu-4" style="edgeStyle=orthogonalEdgeStyle;rounded=0;orthogonalLoop=1;jettySize=auto;html=1;" edge="1" parent="1" source="UwQH9vy1tKMPyPWjgtnu-1" target="UwQH9vy1tKMPyPWjgtnu-2">
          <mxGeometry relative="1" as="geometry" />
        </mxCell>
        <mxCell id="UwQH9vy1tKMPyPWjgtnu-1" value="" style="points=[[0.145,0.145,0],[0.5,0,0],[0.855,0.145,0],[1,0.5,0],[0.855,0.855,0],[0.5,1,0],[0.145,0.855,0],[0,0.5,0]];shape=mxgraph.bpmn.event;html=1;verticalLabelPosition=bottom;labelBackgroundColor=#ffffff;verticalAlign=top;align=center;perimeter=ellipsePerimeter;outlineConnect=0;aspect=fixed;outline=standard;symbol=general;" vertex="1" parent="1">
          <mxGeometry x="90" y="110" width="50" height="50" as="geometry" />
        </mxCell>
        <mxCell id="UwQH9vy1tKMPyPWjgtnu-5" style="edgeStyle=orthogonalEdgeStyle;rounded=0;orthogonalLoop=1;jettySize=auto;html=1;" edge="1" parent="1" source="UwQH9vy1tKMPyPWjgtnu-2" target="UwQH9vy1tKMPyPWjgtnu-3">
          <mxGeometry relative="1" as="geometry" />
        </mxCell>
        <mxCell id="UwQH9vy1tKMPyPWjgtnu-2" value="Receive a completed work order" style="points=[[0.25,0,0],[0.5,0,0],[0.75,0,0],[1,0.25,0],[1,0.5,0],[1,0.75,0],[0.75,1,0],[0.5,1,0],[0.25,1,0],[0,0.75,0],[0,0.5,0],[0,0.25,0]];shape=mxgraph.bpmn.task;whiteSpace=wrap;rectStyle=rounded;size=10;html=1;container=1;expand=0;collapsible=0;taskMarker=abstract;" vertex="1" parent="1">
          <mxGeometry x="220" y="95" width="120" height="80" as="geometry" />
        </mxCell>
        <mxCell id="UwQH9vy1tKMPyPWjgtnu-7" style="edgeStyle=orthogonalEdgeStyle;rounded=0;orthogonalLoop=1;jettySize=auto;html=1;" edge="1" parent="1" source="UwQH9vy1tKMPyPWjgtnu-3" target="UwQH9vy1tKMPyPWjgtnu-6">
          <mxGeometry relative="1" as="geometry" />
        </mxCell>
        <mxCell id="UwQH9vy1tKMPyPWjgtnu-3" value="&amp;nbsp;Compare it against the original order&amp;nbsp;" style="points=[[0.25,0,0],[0.5,0,0],[0.75,0,0],[1,0.25,0],[1,0.5,0],[1,0.75,0],[0.75,1,0],[0.5,1,0],[0.25,1,0],[0,0.75,0],[0,0.5,0],[0,0.25,0]];shape=mxgraph.bpmn.task;whiteSpace=wrap;rectStyle=rounded;size=10;html=1;container=1;expand=0;collapsible=0;taskMarker=abstract;" vertex="1" parent="1">
          <mxGeometry x="414" y="95" width="120" height="80" as="geometry" />
        </mxCell>
        <mxCell id="UwQH9vy1tKMPyPWjgtnu-9" style="edgeStyle=orthogonalEdgeStyle;rounded=0;orthogonalLoop=1;jettySize=auto;html=1;" edge="1" parent="1" source="UwQH9vy1tKMPyPWjgtnu-6" target="UwQH9vy1tKMPyPWjgtnu-8">
          <mxGeometry relative="1" as="geometry" />
        </mxCell>
        <mxCell id="UwQH9vy1tKMPyPWjgtnu-6" value="Produce an invoice for the customer" style="points=[[0.25,0,0],[0.5,0,0],[0.75,0,0],[1,0.25,0],[1,0.5,0],[1,0.75,0],[0.75,1,0],[0.5,1,0],[0.25,1,0],[0,0.75,0],[0,0.5,0],[0,0.25,0]];shape=mxgraph.bpmn.task;whiteSpace=wrap;rectStyle=rounded;size=10;html=1;container=1;expand=0;collapsible=0;taskMarker=abstract;" vertex="1" parent="1">
          <mxGeometry x="610" y="95" width="120" height="80" as="geometry" />
        </mxCell>
        <mxCell id="UwQH9vy1tKMPyPWjgtnu-11" style="edgeStyle=orthogonalEdgeStyle;rounded=0;orthogonalLoop=1;jettySize=auto;html=1;" edge="1" parent="1" source="UwQH9vy1tKMPyPWjgtnu-8" target="UwQH9vy1tKMPyPWjgtnu-10">
          <mxGeometry relative="1" as="geometry" />
        </mxCell>
        <mxCell id="UwQH9vy1tKMPyPWjgtnu-8" value="Produce a delivery note to accompany the product" style="points=[[0.25,0,0],[0.5,0,0],[0.75,0,0],[1,0.25,0],[1,0.5,0],[1,0.75,0],[0.75,1,0],[0.5,1,0],[0.25,1,0],[0,0.75,0],[0,0.5,0],[0,0.25,0]];shape=mxgraph.bpmn.task;whiteSpace=wrap;rectStyle=rounded;size=10;html=1;container=1;expand=0;collapsible=0;taskMarker=abstract;" vertex="1" parent="1">
          <mxGeometry x="610" y="240" width="120" height="80" as="geometry" />
        </mxCell>
        <mxCell id="UwQH9vy1tKMPyPWjgtnu-13" style="edgeStyle=orthogonalEdgeStyle;rounded=0;orthogonalLoop=1;jettySize=auto;html=1;" edge="1" parent="1" source="UwQH9vy1tKMPyPWjgtnu-10" target="UwQH9vy1tKMPyPWjgtnu-12">
          <mxGeometry relative="1" as="geometry" />
        </mxCell>
        <mxCell id="UwQH9vy1tKMPyPWjgtnu-14" value="The customer has a good credit rating" style="edgeLabel;html=1;align=center;verticalAlign=middle;resizable=0;points=[];" vertex="1" connectable="0" parent="UwQH9vy1tKMPyPWjgtnu-13">
          <mxGeometry x="0.0163" y="1" relative="1" as="geometry">
            <mxPoint as="offset" />
          </mxGeometry>
        </mxCell>
        <mxCell id="UwQH9vy1tKMPyPWjgtnu-16" style="edgeStyle=orthogonalEdgeStyle;rounded=0;orthogonalLoop=1;jettySize=auto;html=1;" edge="1" parent="1" source="UwQH9vy1tKMPyPWjgtnu-10" target="UwQH9vy1tKMPyPWjgtnu-15">
          <mxGeometry relative="1" as="geometry" />
        </mxCell>
        <mxCell id="UwQH9vy1tKMPyPWjgtnu-18" value="The customer is cash-on-delivery" style="edgeLabel;html=1;align=center;verticalAlign=middle;resizable=0;points=[];" vertex="1" connectable="0" parent="UwQH9vy1tKMPyPWjgtnu-16">
          <mxGeometry x="-0.2667" y="-1" relative="1" as="geometry">
            <mxPoint x="1" y="-29" as="offset" />
          </mxGeometry>
        </mxCell>
        <mxCell id="UwQH9vy1tKMPyPWjgtnu-10" value="" style="points=[[0.25,0.25,0],[0.5,0,0],[0.75,0.25,0],[1,0.5,0],[0.75,0.75,0],[0.5,1,0],[0.25,0.75,0],[0,0.5,0]];shape=mxgraph.bpmn.gateway2;html=1;verticalLabelPosition=bottom;labelBackgroundColor=#ffffff;verticalAlign=top;align=center;perimeter=rhombusPerimeter;outlineConnect=0;outline=none;symbol=none;" vertex="1" parent="1">
          <mxGeometry x="645" y="390" width="50" height="50" as="geometry" />
        </mxCell>
        <mxCell id="UwQH9vy1tKMPyPWjgtnu-12" value="Sent the invoice directly to the costomer" style="points=[[0.25,0,0],[0.5,0,0],[0.75,0,0],[1,0.25,0],[1,0.5,0],[1,0.75,0],[0.75,1,0],[0.5,1,0],[0.25,1,0],[0,0.75,0],[0,0.5,0],[0,0.25,0]];shape=mxgraph.bpmn.task;whiteSpace=wrap;rectStyle=rounded;size=10;html=1;container=1;expand=0;collapsible=0;taskMarker=abstract;" vertex="1" parent="1">
          <mxGeometry x="250" y="460" width="120" height="80" as="geometry" />
        </mxCell>
        <mxCell id="UwQH9vy1tKMPyPWjgtnu-21" style="edgeStyle=orthogonalEdgeStyle;rounded=0;orthogonalLoop=1;jettySize=auto;html=1;" edge="1" parent="1" source="UwQH9vy1tKMPyPWjgtnu-15">
          <mxGeometry relative="1" as="geometry">
            <mxPoint x="670" y="850" as="targetPoint" />
          </mxGeometry>
        </mxCell>
        <mxCell id="UwQH9vy1tKMPyPWjgtnu-19" value="Forward the invoice to the warehouse for packing with the product" style="points=[[0.25,0,0],[0.5,0,0],[0.75,0,0],[1,0.25,0],[1,0.5,0],[1,0.75,0],[0.75,1,0],[0.5,1,0],[0.25,1,0],[0,0.75,0],[0,0.5,0],[0,0.25,0]];shape=mxgraph.bpmn.task;whiteSpace=wrap;rectStyle=rounded;size=10;html=1;container=1;expand=0;collapsible=0;taskMarker=abstract;" vertex="1" parent="1">
          <mxGeometry x="610" y="560" width="120" height="80" as="geometry" />
        </mxCell>
        <mxCell id="UwQH9vy1tKMPyPWjgtnu-23" style="edgeStyle=orthogonalEdgeStyle;rounded=0;orthogonalLoop=1;jettySize=auto;html=1;" edge="1" parent="1" source="UwQH9vy1tKMPyPWjgtnu-22">
          <mxGeometry relative="1" as="geometry">
            <mxPoint x="670" y="990" as="targetPoint" />
          </mxGeometry>
        </mxCell>
        <mxCell id="UwQH9vy1tKMPyPWjgtnu-22" value="Sent the delivery note to the warehouse" style="points=[[0.25,0,0],[0.5,0,0],[0.75,0,0],[1,0.25,0],[1,0.5,0],[1,0.75,0],[0.75,1,0],[0.5,1,0],[0.25,1,0],[0,0.75,0],[0,0.5,0],[0,0.25,0]];shape=mxgraph.bpmn.task;whiteSpace=wrap;rectStyle=rounded;size=10;html=1;container=1;expand=0;collapsible=0;taskMarker=abstract;" vertex="1" parent="1">
          <mxGeometry x="610" y="850" width="120" height="80" as="geometry" />
        </mxCell>
        <mxCell id="UwQH9vy1tKMPyPWjgtnu-24" value="" style="points=[[0.145,0.145,0],[0.5,0,0],[0.855,0.145,0],[1,0.5,0],[0.855,0.855,0],[0.5,1,0],[0.145,0.855,0],[0,0.5,0]];shape=mxgraph.bpmn.event;html=1;verticalLabelPosition=bottom;labelBackgroundColor=#ffffff;verticalAlign=top;align=center;perimeter=ellipsePerimeter;outlineConnect=0;aspect=fixed;outline=end;symbol=terminate2;" vertex="1" parent="1">
          <mxGeometry x="645" y="990" width="50" height="50" as="geometry" />
        </mxCell>
        <mxCell id="UwQH9vy1tKMPyPWjgtnu-26" value="" style="edgeStyle=orthogonalEdgeStyle;rounded=0;orthogonalLoop=1;jettySize=auto;html=1;" edge="1" parent="1" source="UwQH9vy1tKMPyPWjgtnu-19" target="UwQH9vy1tKMPyPWjgtnu-15">
          <mxGeometry relative="1" as="geometry">
            <mxPoint x="670" y="850" as="targetPoint" />
            <mxPoint x="540" y="650" as="sourcePoint" />
          </mxGeometry>
        </mxCell>
        <mxCell id="UwQH9vy1tKMPyPWjgtnu-15" value="" style="points=[[0.25,0.25,0],[0.5,0,0],[0.75,0.25,0],[1,0.5,0],[0.75,0.75,0],[0.5,1,0],[0.25,0.75,0],[0,0.5,0]];shape=mxgraph.bpmn.gateway2;html=1;verticalLabelPosition=bottom;labelBackgroundColor=#ffffff;verticalAlign=top;align=center;perimeter=rhombusPerimeter;outlineConnect=0;outline=none;symbol=none;" vertex="1" parent="1">
          <mxGeometry x="645" y="710" width="50" height="50" as="geometry" />
        </mxCell>
        <mxCell id="UwQH9vy1tKMPyPWjgtnu-28" style="edgeStyle=orthogonalEdgeStyle;rounded=0;orthogonalLoop=1;jettySize=auto;html=1;entryX=0;entryY=0.5;entryDx=0;entryDy=0;entryPerimeter=0;" edge="1" parent="1" source="UwQH9vy1tKMPyPWjgtnu-12" target="UwQH9vy1tKMPyPWjgtnu-15">
          <mxGeometry relative="1" as="geometry">
            <Array as="points">
              <mxPoint x="310" y="735" />
            </Array>
          </mxGeometry>
        </mxCell>
      </root>
    </mxGraphModel>
  </diagram>
</mxfile>
